<svg width="20" height="19" viewBox="0 0 20 19" fill="none" xmlns="http://www.w3.org/2000/svg">
<rect width="20" height="19" fill="#E5E5E5"/>
<rect width="1600" height="3828" transform="translate(-1350 -18)" fill="white"/>
<path d="M250 -18H-1350V57H250V-18Z" fill="#222222"/>
<path d="M4.20093 37C3.55318 36.9738 2.9415 36.6948 2.49719 36.2227C2.05288 35.7506 1.81137 35.1232 1.82446 34.475C1.83755 33.8269 2.10425 33.2097 2.56726 32.7559C3.03027 32.3022 3.65274 32.048 4.30103 32.048C4.94931 32.048 5.57166 32.3022 6.03467 32.7559C6.49767 33.2097 6.76438 33.8269 6.77747 34.475C6.79055 35.1232 6.54905 35.7506 6.10474 36.2227C5.66043 36.6948 5.04875 36.9738 4.401 37H4.20093ZM-15.2471 34.32C-15.2471 33.79 -15.0899 33.2718 -14.7954 32.8311C-14.5009 32.3904 -14.0824 32.0469 -13.5927 31.844C-13.1029 31.6412 -12.5641 31.5881 -12.0442 31.6915C-11.5243 31.7949 -11.0468 32.0502 -10.672 32.425C-10.2972 32.7998 -10.0419 33.2773 -9.93848 33.7972C-9.83507 34.317 -9.88822 34.8559 -10.0911 35.3456C-10.2939 35.8353 -10.6374 36.2539 -11.0781 36.5483C-11.5188 36.8428 -12.037 37 -12.567 37C-12.9191 37.0003 -13.2679 36.9311 -13.5933 36.7966C-13.9186 36.662 -14.2143 36.4646 -14.4634 36.2158C-14.7125 35.9669 -14.91 35.6713 -15.0448 35.3461C-15.1796 35.0208 -15.249 34.6721 -15.249 34.32H-15.2471ZM-11.447 28.686C-11.7065 28.6868 -11.9591 28.6024 -12.1659 28.4457C-12.3727 28.2891 -12.5224 28.0689 -12.592 27.819L-17.425 10.364H-20.818C-21.1315 10.364 -21.4321 10.2395 -21.6538 10.0178C-21.8755 9.79614 -22 9.49549 -22 9.18201C-22 8.86852 -21.8755 8.56787 -21.6538 8.3462C-21.4321 8.12454 -21.1315 8.00001 -20.818 8.00001H-16.537C-16.2775 7.99919 -16.025 8.08372 -15.8182 8.24057C-15.6115 8.39742 -15.4622 8.61788 -15.3931 8.86801L-10.5601 26.323H2.61792L7.00098 16.275H-7.599C-7.75718 16.2796 -7.91465 16.2524 -8.06213 16.1951C-8.20962 16.1377 -8.34413 16.0513 -8.45764 15.9411C-8.57115 15.8308 -8.6614 15.6989 -8.72302 15.5532C-8.78464 15.4074 -8.81641 15.2508 -8.81641 15.0925C-8.81641 14.9343 -8.78464 14.7776 -8.72302 14.6319C-8.6614 14.4861 -8.57115 14.3542 -8.45764 14.2439C-8.34413 14.1337 -8.20962 14.0473 -8.06213 13.9899C-7.91465 13.9326 -7.75718 13.9054 -7.599 13.91H8.81396C9.00965 13.91 9.20224 13.9587 9.37439 14.0517C9.54654 14.1448 9.69278 14.2793 9.79993 14.443C9.9078 14.6073 9.9734 14.7957 9.99084 14.9914C10.0083 15.1872 9.97714 15.3842 9.90002 15.565L4.495 27.977C4.40261 28.1876 4.25096 28.3668 4.05847 28.4927C3.86599 28.6186 3.64101 28.6858 3.41101 28.686H-11.447Z" fill="#E8E8E8"/>
<path d="M9.50195 19C14.7487 19 19.002 14.7467 19.002 9.5C19.002 4.25329 14.7487 0 9.50195 0C4.25525 0 0.00195312 4.25329 0.00195312 9.5C0.00195312 14.7467 4.25525 19 9.50195 19Z" fill="#F16D7F"/>
<path d="M8.81458 7.648C9.26258 7.552 9.67458 7.504 10.0506 7.504C10.4986 7.504 10.8946 7.57 11.2386 7.702C11.5826 7.834 11.8686 8.016 12.0966 8.248C12.3286 8.48 12.5026 8.754 12.6186 9.07C12.7386 9.386 12.7986 9.73 12.7986 10.102C12.7986 10.558 12.7186 10.97 12.5586 11.338C12.4026 11.706 12.1846 12.022 11.9046 12.286C11.6286 12.546 11.3026 12.746 10.9266 12.886C10.5506 13.026 10.1446 13.096 9.70858 13.096C9.45658 13.096 9.21458 13.07 8.98258 13.018C8.75058 12.97 8.53258 12.904 8.32858 12.82C8.12858 12.736 7.94258 12.64 7.77058 12.532C7.59858 12.424 7.44658 12.31 7.31458 12.19L7.64458 11.734C7.71658 11.63 7.81058 11.578 7.92658 11.578C8.00658 11.578 8.09658 11.61 8.19658 11.674C8.29658 11.734 8.41858 11.802 8.56258 11.878C8.70658 11.954 8.87458 12.024 9.06658 12.088C9.26258 12.148 9.49458 12.178 9.76258 12.178C10.0626 12.178 10.3326 12.13 10.5726 12.034C10.8126 11.938 11.0186 11.802 11.1906 11.626C11.3626 11.446 11.4946 11.232 11.5866 10.984C11.6786 10.736 11.7246 10.458 11.7246 10.15C11.7246 9.882 11.6846 9.64 11.6046 9.424C11.5286 9.208 11.4106 9.024 11.2506 8.872C11.0946 8.72 10.8986 8.602 10.6626 8.518C10.4266 8.434 10.1506 8.392 9.83458 8.392C9.61858 8.392 9.39258 8.41 9.15658 8.446C8.92458 8.482 8.68658 8.54 8.44258 8.62L7.77058 8.422L8.46058 4.402H12.5346V4.87C12.5346 5.022 12.4866 5.148 12.3906 5.248C12.2986 5.344 12.1386 5.392 11.9106 5.392H9.21058L8.81458 7.648Z" fill="white"/>
</svg>
